<?xml version="1.0" encoding="UTF-8" standalone="no"?>
<!-- Generator: Adobe Illustrator 25.3.0, SVG Export Plug-In . SVG Version: 6.00 Build 0)  -->

<svg
   version="1.1"
   id="svg1324"
   x="0px"
   y="0px"
   viewBox="0 0 236 266"
   style="enable-background:new 0 0 236 266;"
   xml:space="preserve"
   xmlns="http://www.w3.org/2000/svg"
   xmlns:svg="http://www.w3.org/2000/svg"><defs
   id="defs9" />
<style
   type="text/css"
   id="style2">
	.st0{fill:#FFFFFF;}
</style>
<g
   id="g1330">
	<path
   id="path1496"
   class="st0"
   d="M104.2,264.9c-30.5-2.9-62.8-21.8-81.2-47.4c-13.8-19.2-19.7-35-22.2-59   C-2.1,131.4,7,99.8,24.3,76.8C40.8,55,66,39,93.4,33.1l7.9-1.7l6.4-14.4c7-15.9,7.8-17,10.4-17c3,0,5.1,3.2,11.7,17.8l6.3,14   l5.9,1.2c42.6,8.4,79.5,43.4,89.8,85.2c10.1,41.2-1.1,83.2-30.2,112.7c-18.6,18.9-45.2,31.7-71.2,34.2   C119.2,266.1,116,266.1,104.2,264.9L104.2,264.9z M129.2,262c26.5-2.5,49.4-13.6,69.4-33.4c20-19.9,30.7-42.4,33.4-69.9   c1.1-11.1,0.2-26-2.1-36.1c-8.3-36.9-38.6-70.5-74.3-82.4c-9.4-3.1-17.5-5.2-17.5-4.5c0,0.2,2.7,6.4,6.1,13.6l6.1,13.2l5.6,2.4   c20.8,9.1,40.7,30.7,47.9,51.7c4.9,14.5,6.6,32.2,4.5,45.8c-5.5,34.1-29.9,62.5-62.6,72.5c-20.7,6.4-45.6,5-65.2-3.7   c-6.6-2.9-19.4-11.2-24.2-15.7c-11.2-10.5-20.3-25.3-25.7-41.6c-2.6-7.9-2.8-9.7-2.9-25.5c-0.1-18.8,1-24.1,7.9-39.1   C44.8,89,64.2,70.5,82.9,64c4.4-1.5,4.4-1.6,10.3-14.9c3.2-7.3,5.7-13.5,5.5-13.7C98.1,34.7,82.9,39,75,42   c-4.2,1.6-11.1,5.1-15.5,7.8c-27.5,17-47,44.2-53.6,74.8c-3,13.7-3,35.3-0.1,47.3c7.3,29.7,23,53.1,47,69.8   c18.6,12.9,39.7,20,62.7,21C117.2,262.9,123.3,262.5,129.2,262L129.2,262z M113,252c0-5.3-0.2-6-2-6c-1.1,0-2-0.4-2-1   c0-0.6,2.7-1,6-1c5.8,0,8.4,1.5,3.8,2.2c-2,0.3-2.3,1-2.5,6.1c-0.2,4.2-0.7,5.8-1.8,5.8C113.3,258,113,256.6,113,252z M125.6,256.2   c-0.3-1-0.8-4.1-1.2-7l-0.7-5.2l2.8,0c1.6,0,3.9-0.3,5.1-0.6c1.3-0.4,2.2-0.2,2.2,0.5c0,0.6-1.7,1.4-3.9,1.7   c-3.2,0.5-3.8,1-3.4,2.5c0.4,1.6,1.1,1.8,4.4,1.3c2.6-0.4,3.9-0.2,3.9,0.5c0,0.6-1.7,1.4-3.9,1.7c-3.2,0.5-3.8,1-3.4,2.5   c0.4,1.5,1.5,1.9,5.1,2c3.5,0.1,4.1,0.3,2.6,0.9C131.8,258.6,126.2,258.2,125.6,256.2L125.6,256.2z M99,255.6   c0-2.2-5.2-3.1-6.6-1.2c-1.1,1.6-3.4,2.2-3.4,0.9c0-0.4,1.6-3.5,3.5-7c3.8-6.8,6-8,7-3.6c0.3,1.5,1,4.3,1.5,6.2   c1.2,4.9,1.1,6-0.6,6C99.7,257,99,256.4,99,255.6z M98,249.5c0-2.8-1.5-3.4-2.4-0.9c-1,2.5-0.7,3.4,0.9,3.4   C97.4,252,98,251.1,98,249.5z M142.6,248.9c-0.9-3.3-1.5-6.7-1.2-7.4c0.3-0.7,2.4-1.6,4.6-2c4.7-0.8,7.3,0.7,6.9,3.9   c-0.1,1.1,0.5,3.5,1.5,5.3c1.6,2.9,1.6,3.2,0.1,3.2c-0.9,0-2.4-1-3.4-2.2c-2.6-3.2-5.5-1.8-4.7,2.2c0.4,2.1,0.2,3-0.7,3   C144.8,255,143.6,252.5,142.6,248.9L142.6,248.9z M150,243.3c0-0.8-1.2-1.3-3-1.3c-3,0-3.5,0.6-2.4,3.4c0.5,1.2,1.1,1.3,3,0.4   C148.9,245.2,150,244.1,150,243.3z M80,250.1c0.6-1.1,1.5-3.2,2-4.8c1-2.8,1-2.8-0.7-0.8c-1,1.1-2.4,3-3.3,4.2   c-2.5,3.7-4.1,1.4-3.1-4.7c0.9-5.8,0-5.7-1.8,0.1c-0.7,2.1-1.8,3.8-2.6,3.8c-1.8,0-1.8,0.5,0.9-6.5c1.7-4.4,2.8-6,4.2-6   c1.7,0,1.9,0.6,1.7,5.5c-0.3,5.5-0.2,5.5,1.5,3.1c3.9-5.4,5-6.4,6.5-5.8c1.4,0.5,1.4,1.3-0.5,7.2c-1.6,4.9-2.6,6.6-4,6.6   C79.3,252,79.1,251.7,80,250.1z M161.1,246.6c-0.9-1.1-0.9-1.6,0-2.1c0.6-0.4,1.5-0.1,1.9,0.6s1.5,1,2.4,0.6   c1.4-0.5,1.2-1.4-1.4-6.6c-2.7-5.3-2.8-6-1.3-6c1.8,0,6.3,8.7,6.3,12.1C169,248,163.2,249.1,161.1,246.6L161.1,246.6z M61.7,243.4   c-0.3-0.3-0.4-1.2-0.1-1.9c0.7-1.9-4-4.7-5.5-3.3c-0.8,0.8-1.4,0.8-2.2,0.1c-0.8-0.8,0.5-2.4,4.4-5.7c9.1-7.8,9.8-6.8,6.2,9.1   C64,244,62.9,244.6,61.7,243.4L61.7,243.4z M63,236.1c0-0.5,0.3-1.7,0.7-2.8c0.6-1.7,0.6-1.7-1.5,0.1c-1.2,1-1.9,2.3-1.6,2.8   C61.3,237.3,63,237.2,63,236.1z M173.1,235.7c-2.3-2.9-4.1-5.6-4.1-5.9c0-0.3,1.8-2,4.1-3.8c3.2-2.5,4.3-2.9,5.2-2   c0.9,0.9,0.8,1.4-0.3,2.1c-4.4,2.6-5.5,3.9-4.3,5.1c1,1,1.6,0.9,3.1-0.4c2-1.8,4.2-2.2,4.2-0.7c0,0.5-1.2,1.9-2.6,3   c-2.2,1.7-2.4,2.3-1.4,3.6c1.1,1.3,1.7,1.2,4.6-1c4.7-3.6,5.2-1.3,0.5,2.4c-2.1,1.7-4.1,3.1-4.4,3.1   C177.5,241,175.4,238.6,173.1,235.7z M42.2,228.7c-4.6-4.9-1.5-12.1,5.3-12.1c4.6,0,6.5,1.9,6.5,6.4   C54,229.9,46.6,233.4,42.2,228.7L42.2,228.7z M51,224.8c1.4-2.5,1.4-2.9-0.1-4.4c-3.6-3.6-10.2,1.2-7.8,5.7   C44.6,229,49,228.3,51,224.8L51,224.8z M187.2,223.3c-4.5-1.8-6-2.9-5.3-3.7s2.4-0.4,5.6,1.1c2.5,1.2,4.7,2.2,5,2.2   c0.2,0-0.9-2.1-2.5-4.6c-2.7-4.2-3.1-6.4-1.2-6.4c0.7,0,8.1,12.1,8.1,13.3C197,226.6,193.4,225.9,187.2,223.3L187.2,223.3z    M31.5,216.9c-0.7-1.1-0.3-1.4,7.2-6.9c3.2-2.3,4.3-2.7,4.7-1.6c0.3,0.9-1.4,2.9-4.9,5.5C32.5,218.4,32.4,218.5,31.5,216.9z    M22.7,203.2c-2.7-4.2-3-3.7,5.5-8.6l4.6-2.7l2.2,3.6c2.7,4.4,2.1,7.9-2,10C28.1,208,25.3,207.5,22.7,203.2z M32.2,202.2   c1.9-1.7,2.2-3,0.9-5c-0.7-1.1-1.6-0.9-5,1c-4.6,2.6-4.8,3-2.6,5.2C27.2,205,29.4,204.6,32.2,202.2z M210.6,199.6   c0.3-0.8,1.4-1.6,2.5-1.9c2.3-0.6,2.7-4.7,0.5-4.7c-0.8,0-2.2,1.1-3.1,2.6c-1.2,1.8-2.4,2.5-4.2,2.2c-3.7-0.5-5.1-3.2-3.2-6.6   c1.5-2.7,6-4.4,6-2.3c0,0.6-0.6,1.1-1.4,1.1c-1.3,0-2.6,2-2.6,4.1c0,1.9,2.8,0.8,4.4-1.6c1.8-2.8,5.6-3.3,7.5-1.1   c1.5,1.9,0.3,7.5-1.9,8.7C212.3,201.5,210,201.2,210.6,199.6L210.6,199.6z M17,192.6c0-0.8,0.4-1.7,1-2.1c1.3-0.8-1.6-6.5-3.4-6.5   c-0.8,0-1.6-0.7-1.9-1.5c-0.5-1.3,0.7-1.5,7.3-1.5c10.6,0,11.3,1.6,4,8.2C18.3,194.3,17,194.9,17,192.6z M23.6,185.5   c1.8-1.4,1.8-1.5-1.3-1.5c-2.5,0-3.1,0.3-2.6,1.5C20.4,187.4,21.1,187.4,23.6,185.5z M216.5,183.9c-2.2-0.5-5-1.1-6.2-1.4   c-4.2-1-2.5-2.8,2-2.1c8.1,1.3,8,1.3,8.9-2.2c0.5-1.8,1.3-3.2,1.9-3.2c0.7,0,0.8,1.2,0.4,3.2c-1,5.2-1.6,6.8-2.3,6.6   C220.8,184.8,218.7,184.4,216.5,183.9z M10.7,173.7c-0.2-0.7,0.5-1.7,1.7-2.2c1.3-0.6,2.1-2,2.1-3.5c0-2.1-0.4-2.4-2.8-2.2   c-4.3,0.4-3.6-2.6,0.8-3.2c11.2-1.7,10.4-1.8,11,0.8c0.3,1.3,0.5,3.9,0.3,5.8c-0.3,3-0.7,3.4-3.3,3.5c-1.6,0.1-3.8,0.4-4.8,0.8   C11.8,174.8,11.1,174.8,10.7,173.7L10.7,173.7z M21.5,167.9c0-1.7-0.6-2.5-2.2-2.7c-2.5-0.3-2.8,0.9-1.2,3.9   C19.5,171.7,21.5,171,21.5,167.9z M214,166.3c-2.5-3.1-2.1-7.9,0.7-10c2.6-2,8-1.5,10.4,0.9c1.7,1.7,2,2.9,1.5,5.7   c-0.7,4.3-2.9,6.1-7.3,6.1C217,169,215.5,168.2,214,166.3z M224,164c2.6-4.8-4.7-9.3-8.2-5c-2.2,2.8-2.3,3.5-0.3,5.5   C217.8,166.7,222.7,166.4,224,164z M213.2,148.3c0.2-1,2.3-2.3,5.3-3.3c5.3-1.8,5.2-2.4-0.7-3.5c-2-0.4-4.2-1.3-4.9-2.1   c-1.5-1.8-0.5-1.8,7.6,0.2c7.8,2,8.3,3.7,1.7,6.5C213.1,150.1,212.8,150.2,213.2,148.3L213.2,148.3z M9.8,136.3   C12,134.7,13,129,11,129c-0.6,0-1-0.9-1-2c0-1.9,0.5-1.8,6.9,1.5c5.6,2.8,6.8,3.8,6.4,5.4c-0.4,1.5-1.9,2.2-6.7,3   C8.3,138.4,7,138.3,9.8,136.3z M18.3,134.1c1.7-0.7,1.6-0.8-0.7-1.9c-2.6-1.2-4.3-0.2-3.1,1.8C15.2,135.1,15.7,135.2,18.3,134.1   L18.3,134.1z M211.9,133.9c0-0.2-0.3-1.5-0.5-2.9s-0.7-3.5-0.9-4.8s-0.1-2.2,0.4-2.2c1.1,0,2.1,2.5,2.1,5.1c0,1.3,0.7,1.9,2.1,1.9   c1.9,0,2.1-0.4,1.5-4c-0.8-4.8,0.9-5.4,2.2-0.8c0.6,2.4,1.3,3.2,2.8,2.9c2.6-0.5,2.5-0.3,1.4-4.2c-0.5-1.9-0.7-3.6-0.5-3.9   c1-1,2.3,1.4,2.9,5.6l0.7,4.2l-3.9,1C216.7,133.4,212,134.3,211.9,133.9L211.9,133.9z M23.5,123.2c-0.6-0.4-2.5-3-4.2-5.7l-3.2-5   l-1.1,3.2c-1,2.8-2.9,4.5-2.9,2.5c0-2.1,3.4-9.3,4.4-9.3c0.6,0,2.5,2.2,4.1,5c1.6,2.7,3.3,5,3.6,5c0.4,0,1.1-1.3,1.7-3   c1.2-3.4,3.7-4.2,2.6-0.8c-0.9,2.9-3.4,8.8-3.7,8.8C24.6,124,24,123.6,23.5,123.2z M207.5,117c-0.4-0.6,0.9-3.1,2.9-5.5   c2-2.4,3.6-4.6,3.6-4.9s-1.6,0.1-3.5,0.9c-3.9,1.6-6.5,1.9-6.5,0.6c0-0.7,11.9-6.1,13.5-6.1c1.5,0,0.1,4.2-2.5,7.5   c-1.6,2.1-3,3.9-3,4.1s1.8-0.4,4.1-1.3c3-1.2,4.4-1.3,5.2-0.5c0.8,0.8-0.2,1.7-3.7,3.1C211,117.8,208.3,118.3,207.5,117z M29,107.2   c0-0.4,0.7-1.9,1.5-3.2c1.8-3.2,1.8-3.7,0-4.4c-1-0.4-2,0.5-3,2.4c-0.9,1.6-2,2.7-2.6,2.4c-0.6-0.4-0.4-1.5,0.5-3   c2-3,2-3.2-0.4-4.4c-1.7-0.9-2.2-0.6-3.7,2.5c-1.4,3-3.3,4.7-3.3,3.1c0-1.3,4.5-9.5,5.2-9.5c1,0,11.8,6,11.8,6.6   c0,2-3.5,8.4-4.6,8.4C29.6,108,29,107.7,29,107.2z M199.6,101.2c-0.5-0.8,10.4-7.5,12-7.4c2.5,0.2,0.8,2.4-4,5.1   C202,102.1,200.5,102.6,199.6,101.2L199.6,101.2z M32.9,89.9c-2.5-3.7-3.8-6.5-3.2-7s3.8,0,8.1,1.3c4.6,1.4,6.9,2.5,6.3,3.1   c-0.6,0.6-2.7,0.4-5.7-0.7c-2.6-0.9-4.9-1.6-5.2-1.6c-0.2,0,1,1.9,2.7,4.2c1.7,2.3,3.1,4.8,3.1,5.5C39,97.4,36.9,95.8,32.9,89.9z    M191.6,89.1c-0.7-1.1,10.2-8.1,12.6-8.1c2.9,0,4,5.8,1.5,7.9c-1.1,0.9-1.5,0.8-2-0.3c-0.3-0.8-0.1-1.8,0.4-2.1c0.5-0.3,1-1,1-1.5   c0-1.9-3.3-0.9-7,2.1C194,90.1,192.5,90.6,191.6,89.1z M46.7,82.3c-0.4-0.4-0.7-3-0.7-5.8c0-6.3-0.7-7.1-3.7-4.3   c-1.3,1.2-2.6,1.9-3,1.5c-1-1,6.2-8,7.5-7.3c0.5,0.3,1.3,3.4,1.7,6.7l0.7,6.1l2.3-2.1c4.1-3.9,5.1-2.2,1.1,1.9   C48.5,83.1,47.8,83.5,46.7,82.3z M183.6,79.7c-2.8-2.3-3.6-3.5-2.7-4.1c0.8-0.5,2.3,0.2,4,1.9c2.3,2.2,3,2.4,3.9,1.3   c0.9-1.1,0.6-1.9-1.3-3.7c-1.4-1.3-2.2-2.7-1.9-3.2c0.3-0.5,1.8,0.2,3.3,1.7c2.4,2.3,2.9,2.5,4,1c1.1-1.3,0.9-2-1.5-4.5   c-1.6-1.6-2.6-3.2-2.2-3.6c0.6-0.6,8.7,5.4,8.7,6.5c0,0.7-9.3,10.1-10,10C187.7,83,185.7,81.5,183.6,79.7L183.6,79.7z M137.7,234   c20.2-4.7,43.5-20.7,53-36.5c12.5-20.6,16-32.7,15-52c-0.7-13.3-1.1-15.9-4.3-25.5c-5-15-12.2-25.6-25.5-37.5   c-8-7.2-21.2-15.5-22.5-14.2c-0.3,0.3,3.8,10,9.1,21.5c12.7,27.9,12.7,27.1,1.5,51L160,149h3.5c5,0,4.6,1.7-3,17l-6.5,13l-3.7,0   c-4.2,0-2.6-2.6-16.3,28c-2.3,5.2-6,13.2-8.2,17.8l-3.9,8.3l-3.6-0.3l-3.6-0.3l-7.9-17.5c-4.3-9.6-9.9-21.7-12.3-26.8L90,179   l-4.3,0l-4.3,0L75.1,165c-3.5-7.6-6.1-14.4-5.7-15s2.2-1.1,4-1.1h3.4l-6.1-12.8c-5.6-11.7-6.1-13.3-6.1-19.2c0.1-6.1,0.7-7.9,10-28   c5.5-11.8,9.9-21.7,9.7-21.8c-0.5-0.7-9.4,3.7-14.1,7c-13,8.9-25.5,23.1-31.7,36.3c-6.4,13.5-8.1,21.3-8,38.1   c0,16.6,1.3,22.3,7.9,37c10.3,22.6,34.5,42.5,59,48.5C108.8,236.6,126,236.7,137.7,234L137.7,234z M123.2,221.2   c5.3-11.5,18.8-41.5,18.8-41.9c0-0.2-4.9-0.3-11-0.3h-11v7.5v7.5h4c2.9,0,4,0.4,4,1.5c0,1.2-1.8,1.5-10,1.5s-10-0.3-10-1.5   c0-1.1,1.1-1.5,4-1.5h4v-7.5V179h-10.6c-8.1,0-10.5,0.3-10.1,1.2c6.5,15.5,22.4,49.8,23.2,49.8C118.8,230,120.9,226.1,123.2,221.2z    M112,206.5c0-1.2,1.3-1.5,6-1.5s6,0.3,6,1.5s-1.3,1.5-6,1.5S112,207.7,112,206.5z M110,201c0-0.6,3.3-1,8-1s8,0.4,8,1s-3.3,1-8,1   S110,201.6,110,201z M157.5,164l5.5-11h-44.4H74.1l5.1,11l5.1,11h33.8H152L157.5,164z M89,170.4c0-0.9,1.8-3.7,4-6.3s4-5.1,4-5.4   s-1.8-0.7-4-0.7s-4-0.4-4-1c0-0.6,2.7-1,6-1c7.4,0,7.7,1.2,1.9,8.1l-4.1,4.9h4.1c3,0,4.1,0.4,4.1,1.5c0,1.2-1.3,1.5-6,1.5   C90.2,172,89,171.7,89,170.4z M111,164v-8h5.3c2.9,0,5.8,0.5,6.5,1.2c1.5,1.5,1.6,5,0.1,6.5c-0.8,0.8-0.8,1.3,0,1.8   c0.6,0.4,1.1,2,1.1,3.6c0,3.8-2.7,4-3.2,0.2c-0.3-2.3-0.9-2.8-3.6-3.1c-3-0.3-3.2-0.1-3.2,2.8c0,2.1-0.5,3.1-1.5,3.1   C111.3,172,111,170.4,111,164z M120.8,161.4c-0.8-4-6.8-4.3-6.8-0.4c0,1.7,0.6,2,3.6,2C120.4,163,121.1,162.6,120.8,161.4z    M134.1,169.8c-1.1-2.8,1.7-3.8,3.5-1.3c1.5,2,5.9,1.7,5.9-0.4c0-0.8-1.9-2.1-4.5-3c-6.8-2.4-6.7-7.5,0.2-8.7   c2.9-0.5,4-0.1,5.9,1.8c2.2,2.2,2.3,2.4,0.4,2.7c-1.1,0.2-2.1-0.1-2.3-0.7c-0.4-1.3-6.2-1.5-6.2-0.2c0,1.3,1.8,2.4,6,3.6   c2.5,0.7,3.6,1.7,3.8,3.3c0.5,3.6-1.5,5.2-7,5.2C135.7,172,134.8,171.7,134.1,169.8z M117,140.2l0-8.8l-7.1-1.7   c-8.7-2.1-11.6-3.9-13.5-8.5c-1.5-3.6-1.1-10.7,0.7-11.9c0.5-0.3,0.6-1.2,0-2.3c-1.9-3.5-2.3-10.7-0.8-14.9   c1.3-3.6,1.3-4.8,0.1-8.2c-2.8-8.1,3.2-16.1,13.8-18.5l5.3-1.2l0.3-7.2c0.3-6.1,0.1-7.2-1.4-7.2c-0.9,0-1.4-0.6-1.2-1.2   c0.3-0.7,1.3-3.7,2.2-6.8c1-3,2.1-5.9,2.5-6.3c0.6-0.6,6,11.9,6,13.9c0,0.2-0.9,0.4-2,0.4c-1.9,0-2,0.7-2,9c0,8.2-0.2,9-1.9,9   C108.8,68,99,74.1,99,79.8c0,3.6,1.3,4.7,3,2.7c2.3-2.7,11.8-5.5,18.9-5.5c8.2,0,16.7,2.3,18.1,5c1.9,3.5,1.2,6.8-1.9,9   c-6.2,4.4-24.5,5.3-32.4,1.6c-3.2-1.5-4-1.6-4.7-0.4c-1,1.6-1.2,11.2-0.3,12.2c0.3,0.3,2.9-0.5,5.6-1.9c9.5-4.8,28.4-3.8,33.1,1.8   c2.5,3,1.8,7.6-1.4,10c-7.3,5.5-28.7,4.9-35.1-0.9c-1.7-1.5-1.8-1.4-2.8,1.1c-2.2,5.8,4.2,11.1,15.1,12.4l5.4,0.7l0.3,10.8   l0.3,10.8l18.2-0.3l18.2-0.3l6.3-14c5.4-12,6.3-14.7,5.9-18.5c-0.3-3-3.8-11.7-10.6-26.5c-5.6-12.1-10.4-22.7-10.6-23.5   c-0.9-3.7-28.2-61.2-29-61.1c-0.9,0.1-11.9,23.6-39.8,85C71.1,106.3,68,114.3,68,117c0,2.2,1.4,6.9,3.4,11.2   c1.9,4.1,4.8,10.4,6.4,14.1l3,6.8h18.1H117L117,140.2L117,140.2z M131.8,112.9c4.2-1.5,5.7-4.1,3.4-6.2c-5.1-4.5-19.4-5.4-26.9-1.6   c-2.6,1.3-4.9,2.9-5.1,3.6c-0.4,1.3,4.5,4.2,9.3,5.4C116.2,115.1,127.6,114.4,131.8,112.9z M131.9,89.4c2.2-0.9,4.2-2.2,4.5-2.9   c1.6-4.1-12.4-7.8-21.6-5.7c-5.9,1.4-12.1,4.9-11.2,6.3C106,91,124.3,92.4,131.9,89.4z"
   style="fill:#FFFFFF;fill-opacity:1" />
</g>
</svg>